<?xml version="1.0" encoding="UTF-8" standalone="no"?>
<svg
   xmlns:dc="http://purl.org/dc/elements/1.1/"
   xmlns:cc="http://creativecommons.org/ns#"
   xmlns:rdf="http://www.w3.org/1999/02/22-rdf-syntax-ns#"
   xmlns:svg="http://www.w3.org/2000/svg"
   xmlns="http://www.w3.org/2000/svg"
   xmlns:sodipodi="http://sodipodi.sourceforge.net/DTD/sodipodi-0.dtd"
   xmlns:inkscape="http://www.inkscape.org/namespaces/inkscape"
   sodipodi:docname="Popup backgrounds.svg"
   inkscape:version="1.0 (4035a4fb49, 2020-05-01)"
   id="svg8"
   version="1.1"
   viewBox="0 0 210 297"
   height="297mm"
   width="210mm">
  <defs
     id="defs2" />
  <sodipodi:namedview
     inkscape:window-maximized="1"
     inkscape:window-y="-9"
     inkscape:window-x="-9"
     inkscape:window-height="1001"
     inkscape:window-width="1920"
     showgrid="false"
     inkscape:document-rotation="0"
     inkscape:current-layer="layer1"
     inkscape:document-units="mm"
     inkscape:cy="446.40551"
     inkscape:cx="562.9468"
     inkscape:zoom="0.63393604"
     inkscape:pageshadow="2"
     inkscape:pageopacity="0.0"
     borderopacity="1.0"
     bordercolor="#666666"
     pagecolor="#ffffff"
     id="base"
     inkscape:pagecheckerboard="true" />
  <metadata
     id="metadata5">
    <rdf:RDF>
      <cc:Work
         rdf:about="">
        <dc:format>image/svg+xml</dc:format>
        <dc:type
           rdf:resource="http://purl.org/dc/dcmitype/StillImage" />
        <dc:title />
      </cc:Work>
    </rdf:RDF>
  </metadata>
  <g
     id="layer1"
     inkscape:groupmode="layer"
     inkscape:label="Layer 1">
    <path
       sodipodi:nodetypes="sscccsss"
       d="m 183.15524,61.605319 c 0,24.538991 -36.73352,44.431771 -82.04662,44.431771 -16.7729,0 -32.370271,-2.72561 -45.364226,-7.40359 -6.326129,4.20639 -13.42389,7.51175 -34.34824,8.12634 C 29.741182,100.98925 34.492629,96.35366 36.08395,88.70468 25.410203,81.20474 19.062004,71.8065 19.062003,61.605319 c -2e-6,-24.538993 36.733523,-44.431778 82.046617,-44.431778 45.3131,0 82.04662,19.892785 82.04662,44.431778 z"
       style="fill:#ffffff;stroke:#000000;stroke-width:1.07191;stroke-linecap:square"
       id="path10"
       inkscape:export-xdpi="50.799999"
       inkscape:export-ydpi="50.799999" />
    <path
       id="path10-6"
       style="fill:#ffffff;stroke:#000000;stroke-width:1.07191;stroke-linecap:square"
       d="m 184.0504,173.25981 c 6.29263,8.30343 -3.26772,23.62864 -9.65738,23.84929 -0.82854,10.73279 -14.69202,17.9269 -28.28536,14.99267 -4.21137,10.7273 -33.18982,13.15696 -41.03028,5.05527 -8.713925,7.58389 -42.537406,4.64192 -45.364221,-7.40359 -6.32613,4.20639 -13.42389,7.51175 -34.348244,8.12634 8.345028,-5.77059 13.096475,-10.40618 14.687796,-18.05516 -11.533682,-0.31153 -18.703204,-13.91527 -13.280174,-25.09484 -7.702776,-10.16232 1.046642,-25.10771 11.148637,-27.53658 -0.786595,-10.29204 12.32554,-18.97172 27.308139,-14.91354 8.77382,-13.48534 29.656465,-12.4807 39.848067,-3.98619 7.69258,-9.73667 30.18546,-4.45776 34.15429,4.02089 13.48309,-4.33733 31.89023,0.52752 33.07127,13.55873 13.04015,3.27338 18.24041,18.52499 11.74746,27.38671 z"
       sodipodi:nodetypes="cccccccccccccc"
       inkscape:export-xdpi="50.799999"
       inkscape:export-ydpi="50.799999" />
  </g>
</svg>
